# xmcd
#
# Track frame offsets:
#	150
#	54878
#	72597
#	109977
#	122405
#	137693
#	157290
#	178394
#	207919
#	234298
#	246847
#	253424
#	270718
#	301479
#	315775
#
# Disc length: 4450 seconds
#
# Revision: 2
# Processed by: cddbd v1.5.1PL0 Copyright (c) Steve Scherf et al.
# Submitted via: dBpowerAMP V4.0
#
DISCID=dd11600f
DTITLE=Ville Emard Blues Band - Complete 1973-75 [CD2)
DYEAR=1973
DGENRE=Progressive Rock
TTITLE0=Strangle - Solos De Batteries
TTITLE1=Yama Nekh (live)
TTITLE2=You And Your Mother
TTITLE3=La Poutine à Ma Tante Anna
TTITLE4=In Our Loneliness
TTITLE5=Affaire C.S.R. vs Marlyle Killer and Stobert Ranley
TTITLE6=Where's Your Money
TTITLE7=Walter's Van
TTITLE8=La Machine Infernale
TTITLE9=Le Chemin
TTITLE10=Sleepy Teepy
TTITLE11=Secret Pour Pierre-Antoine
TTITLE12=Guess Who's Coming To Jam
TTITLE13=Yama Nekh (45 tours)
TTITLE14=S'asseoir Dans Les Champs
EXTD=
EXTT0=
EXTT1=
EXTT2=
EXTT3=
EXTT4=
EXTT5=
EXTT6=
EXTT7=
EXTT8=
EXTT9=
EXTT10=
EXTT11=
EXTT12=
EXTT13=
EXTT14=
PLAYORDER=
